<svg id="barba" xmlns="http://www.w3.org/2000/svg" viewBox="0 0 177.29 69.6"><defs><style>.cls-1{fill:#211915;stroke:#211915;stroke-miterlimit:10;}</style></defs><title>barba</title><path class="cls-1" d="M463.67,481.92s19.48,9.42,23.5,18.26c2.29,5.05,6.35,14.48,7.67,18.65,2,6.3,2,6.3,2.84,12.38.51,3.63-1.23,6-4.62,6.06s-23.39-15.12-27.05-26S453.67,486.83,463.67,481.92Z" transform="translate(-458.51 -481.36)"/><path class="cls-1" d="M559.5,540.1s-6.5-14.88-.83-30.55,48-20.83,48.33-23.19,3.38,1.39,3.13,4.39a8.18,8.18,0,0,0,1.54,5.81c.71.94,2.08,2.07,3.21,1.63a19.08,19.08,0,0,1,4.5-.81c.75,0,5-.39,5.63-.82a19.81,19.81,0,0,0,1.63-1.36,8.57,8.57,0,0,0,5,3.93c3.63,1.13,4.42-1.12,3,2.38s-16.17,24.17-21.33,27.33-24,13.17-28.83,15.83-10.07,5.42-13.5,5.67C564.21,550.82,558.83,550.36,559.5,540.1Z" transform="translate(-458.51 -481.36)"/></svg>