<svg xmlns="http://www.w3.org/2000/svg" viewBox="0 0 199.17 284.04"><defs><style>.cls-1{fill:#fff;}.cls-2,.cls-5{fill:none;}.cls-2,.cls-3,.cls-4,.cls-5{stroke:#211915;stroke-miterlimit:10;}.cls-2,.cls-4{stroke-linecap:round;}.cls-2,.cls-4,.cls-5{stroke-width:3px;}.cls-3,.cls-4{fill:#211915;}</style></defs><title>base</title><g id="brancoOlho"><path class="cls-1" d="M500,428s.31-4,3.82-2.58,18.38,9.92,32.69,7.92,18.68-3.33,20.16-2.83,3.73,2.16,3.65,4.17-.13,7.33-.13,7.33-1.26,1.56,1.52,3.77,7.75,8.48,8.18,9.9,1.23,9.83,0,11.83-1,5.46-4.06,7.83-11.41,6.58-12.76,6.58-3.83-.51-11.25-5.25c-9.2-5.87-14.23-6.41-20.17-6.41-7.08,0-16.65,4.33-21.67,4.66s-8.84-3.42-11.27-5.18-5.6-8.08-5.59-10.07.41-5.19,1.07-6.41a49.31,49.31,0,0,1,4.27-5l7.31-4.93Z" transform="translate(-446.66 -353.6)"/></g><g id="olho01"><path class="cls-2" d="M500,428s-3.33,15.33-5,16.67-18,5.33-9.33,22.83C493,473,495.33,474,500,474" transform="translate(-446.66 -353.6)"/><path class="cls-2" d="M560.33,434.67a83.18,83.18,0,0,0,0,9.33c.33,2.67,10.67,4.85,10.67,18.76s-13,17.58-17,18.58" transform="translate(-446.66 -353.6)"/><path class="cls-3" d="M500,421.67s10,12.33,26.67,13,28.33-2,31-5S559,422,554,423.33a62.67,62.67,0,0,1-28.33.67c-12.33-2.67-16.67-5.67-19.33-8S498.33,416.67,500,421.67Z" transform="translate(-446.66 -353.6)"/><path class="cls-4" d="M499.68,448s-.85,4.67-2,6.17-1.5,8.67,5.5,10.33,16.5-1.33,15.67-6.5-1-8.67-6.17-10S500.35,445.13,499.68,448Z" transform="translate(-446.66 -353.6)"/><path class="cls-4" d="M542.83,452.22s-5.83,3.62-6.17,6.62S535.83,468.5,544,470s10.5-3.83,10-8.33S548.33,450.43,542.83,452.22Z" transform="translate(-446.66 -353.6)"/><path class="cls-2" d="M527,436.83s-1.17,19.67-1.83,22.83" transform="translate(-446.66 -353.6)"/></g><g id="lineCorpo"><path class="cls-2" d="M501.67,540.86s-12.26,5.74-15.38,8.47c-6.11,5.35-17.65,18.73-24.14,37.2s-3.53,19-3.53,19" transform="translate(-446.66 -353.6)"/><path class="cls-2" d="M481.88,569.13s2.93,11.6.75,15" transform="translate(-446.66 -353.6)"/><path class="cls-2" d="M489.88,569.13s-7.05,19.2-19,31" transform="translate(-446.66 -353.6)"/><path class="cls-2" d="M589.67,540s20,5.27,34.68,27.16,12.43,40.32,13.77,42.06,4.72,7.82,5.14,9.82" transform="translate(-446.66 -353.6)"/><path class="cls-5" d="M607.38,637s-5.31-11.36-6-15.34" transform="translate(-446.66 -353.6)"/></g><g id="LineCabeça"><path class="cls-2" d="M516.5,547s-53-20.5-54-63c-5,0-12.5-2-12.5-5s1.5-8.5,0-11.5-3.25-11.5,0-14.25,5.75-4.5,7.75-4c0-1.12,3.52-57.47,42.25-81.58,21.75-13.54,52.17-19.69,97.33,0,9.61,4.19,25.35,14.34,34.06,30.14,5.23,9.48,9.53,23,11.94,42.86,6.33,52.33-18.33,78.74-53.33,98-9.17,5-18.33,8-31.33,10.67" transform="translate(-446.66 -353.6)"/><path class="cls-2" d="M611.67,471s2.67-6.67,8.67-8,9.67,3,7.67,8-3.33,6-3.33,9.33,4.77,3.67,3.88,8.67-3.89,6.67-8.39,6.67-5.5,2-6.5,0" transform="translate(-446.66 -353.6)"/><path class="cls-2" d="M620,470.87s-3.26,8.58.13,15.48" transform="translate(-446.66 -353.6)"/><path class="cls-2" d="M454.67,459.67s5,2.33,5,6.67,1.33,7.33,0,9" transform="translate(-446.66 -353.6)"/></g></svg>