<svg id="Camada_53" data-name="Camada 53" xmlns="http://www.w3.org/2000/svg" viewBox="0 0 62.73 13.78"><defs><style>.cls-1{fill:#dcb620;}</style></defs><title>bigode02</title><path class="cls-1" d="M538.37,492c-4.69-5.5-14.11-3.49-17-2.71-3.78-1-11.33-2.22-15.6,2.35-5.43,5.8-11.94,8.84-14.45,8.64a28.73,28.73,0,0,0,12.85.61c5.46-1.21,14.34-2.13,18-5.66,3.75,3.39,12.12,4.68,17.32,6.09a28.73,28.73,0,0,0,12.86,0C549.89,501.42,543.52,498.08,538.37,492Z" transform="translate(-490.52 -488.31)"/><path class="cls-1" d="M552.4,501.34a1.88,1.88,0,0,0,.54-.08C553.52,501.05,553.25,501.15,552.4,501.34Z" transform="translate(-490.52 -488.31)"/><path class="cls-1" d="M490.82,500.2a1.88,1.88,0,0,0,.53.1C490.52,500.08,490.25,500,490.82,500.2Z" transform="translate(-490.52 -488.31)"/></svg>