<svg id="boca01" xmlns="http://www.w3.org/2000/svg" viewBox="0 0 32.92 33.62"><defs><style>.cls-1{fill:#211915;}.cls-2{fill:#bf0811;}.cls-3{fill:#fff;}.cls-4{fill:none;stroke:#211915;stroke-linecap:round;stroke-miterlimit:10;stroke-width:3px;}</style></defs><title>boca01</title><path class="cls-1" d="M513.92,500.83s1.42,4.67,2.17,6.33.5,4.83.42,8.17-1.07,8.66-.42,8.46,17.3,1.3,20.38-1.92,5-5.07,4.87-7.38.24-5.61-2.12-8.07-4-4.53-6.51-5a103.19,103.19,0,0,0-10.87-1.48C519.75,499.91,513.3,498.87,513.92,500.83Z" transform="translate(-509.92 -491.67)"/><path class="cls-2" d="M524.17,522.75s-2.08-5.75,2.21-8.83,10.29-2.42,12.21-2.08a6.22,6.22,0,0,1,3.17,1.67L539.86,518l-3.4,3.89L531,523.33S524.43,523.71,524.17,522.75Z" transform="translate(-509.92 -491.67)"/><path class="cls-3" d="M517.5,500.33s-1.17,5.25,1,5.92,15.58.75,15.75,0a34.12,34.12,0,0,0,0-4.17S523.42,496.83,517.5,500.33Z" transform="translate(-509.92 -491.67)"/><path class="cls-4" d="M511.67,493.17s-1.5,6.67,2.83,6.83,26.83-2.67,26.83,13.83c-1.83,6-3,8.67-10.33,9.5s-15.33.33-15.83,0" transform="translate(-509.92 -491.67)"/></svg>