<svg id="Camada_18" data-name="Camada 18" xmlns="http://www.w3.org/2000/svg" viewBox="0 0 38.55 34.18"><defs><style>.cls-1{fill:#211915;}.cls-2{fill:#bf0811;}.cls-3{fill:#fff;}.cls-4{fill:none;stroke:#211915;stroke-linecap:round;stroke-miterlimit:10;stroke-width:3px;}</style></defs><title>boca02</title><path class="cls-1" d="M513.56,501.52s1.62,4.6,2.45,6.23.72,4.81.78,8.14-.68,8.7,0,8.47,17.34.53,20.27-2.84,4.72-5.29,4.53-7.59,6.94-6.52,4.47-8.86-11.11-3.45-13.68-3.81a103.19,103.19,0,0,0-10.93-1C519.35,500.34,512.86,499.59,513.56,501.52Z" transform="translate(-509.32 -492.46)"/><path class="cls-2" d="M524.78,523s-2.34-5.65,1.81-8.92,10.17-2.88,12.1-2.63a6.22,6.22,0,0,1,3.24,1.52l-1.68,4.56-3.22,4-5.39,1.71S525.09,523.91,524.78,523Z" transform="translate(-509.32 -492.46)"/><path class="cls-3" d="M517.12,500.86s-.93,5.3,1.26,5.87,15.6,0,15.73-.71a34.12,34.12,0,0,0-.19-4.16S522.87,497.1,517.12,500.86Z" transform="translate(-509.32 -492.46)"/><path class="cls-4" d="M511,494s-1.2,6.73,3.14,6.7,20.88-1.81,31.5,3.75c3.58-.85-6.28,19.23-13.56,20.39a41.11,41.11,0,0,1-16.37-1.31" transform="translate(-509.32 -492.46)"/></svg>