<svg id="cabelo13" xmlns="http://www.w3.org/2000/svg" viewBox="0 0 196.29 161.52"><defs><style>.cls-1{fill:#211b00;stroke:#211915;stroke-miterlimit:10;stroke-width:3px;}</style></defs><title>cabelo13</title><path class="cls-1" d="M460.26,453.52s-8.58-7.73,0-34.59,17.37-36,23.89-43.06S448.9,347.41,509,342s84.38-.64,99,8,27.67,31,33,48.92,9.33,56.13,8.67,63.4-4.33,24.22-6.33,28.37-5.71,7.7-9,7.53-7.54-3.62-7.3-6c.11-1.07,2.92-2.78,2.65-3.4a11.44,11.44,0,0,0-2.1-4.07,29.17,29.17,0,0,1-2.73-3.41s.1-4.78,1.59-6.75,3.69-6.43,3-8.09a7.74,7.74,0,0,0-3.59-4.21c-1.44-.82-7.09-.32-9.8,3.15s-5.37,6-6,9.08-4.5,3-4.5,3-.17-5.87,0-9.38.14-20-.43-26.22,2.15-23.28-.57-29.64c-7.32-17.13-43.3-16.88-76.65-15.92s-42.32,9.9-46,3.36-2-10.5-2-10.5.34-3.34-.35,1.78S478,399.45,475,404.24s-8.5,24-9.5,27.82S463.63,459.87,460.26,453.52Z" transform="translate(-454.95 -338.17)"/></svg>