<svg id="cabelo11" xmlns="http://www.w3.org/2000/svg" viewBox="0 0 293.2 259.27"><defs><style>.cls-1{fill:#211b00;stroke:#211915;stroke-miterlimit:10;stroke-width:3px;}</style></defs><title>cabelo11</title><path class="cls-1" d="M460.26,487.24s4.74,12.7-8.59,24.56S433,538.71,433,545.19s7.33,5.48,8-3.69,3-15.9,7.16-17.53,11-8.57,12.92-12.43a9.59,9.59,0,0,1,6.09-4.75s2.68,8.15-4.74,17.18-7.42,13.7-7.75,25.37-7.34,20-6.5,23.85,6.43,3.15,9.3-14.18-.29-26.35,5-27.84,9.33-13.69,9.33-13.69,5.5,5.78,2.75,10-8.5,6.25-8.5,14-4.16,13.5-3.58,17.5-2.48,13.92,0,13.25,5.66-2.5,4.74-6.25-1.34-8.05,0-11,1.59-10,1.34-13.47,3.54-8.68,6.77-10.34,4.36-2.66,3.42,3.59-1.46,12.1,0,16,4,1.36,4,1.36a18.81,18.81,0,0,0,.33-6.92c-.48-4.19,0-9.44,1.77-9.19s3.05,10.09,6.82,9.17,11.64-3.79,10.1-5.21-11.8-7.21-11.8-7.21-2.73-2.87-5.8-6.2-10.1-11-10.1-11-8-13.31-8.73-16.39-1-14.95-2.75-15.13S457.46,484.11,460.26,487.24Z" transform="translate(-373.3 -317.3)"/><path class="cls-1" d="M454.67,415.2c-2.46,9.69,3.71,13.84-7.23,19.57S434.5,446.34,433,455.67s-11,19-7,19.66,8-1.91,9-10.37,3.5-20.46,7.5-22,13.2-7,13.85-10.5-.36,13-1.69,15.75,4.88,9.28,5.86,5.27-.68,9.5,1.9,9.24,7.91-3.72,4.74-9.24-5.82-9.85-4.74-16.68,8.9-16.94,8.49-21.64-.29-8.7,9.9-16.7-2.45,8.5,2.62,9,1.82,1.63,6.44-11.19,10.49-11.81,9.81-5.81S503,397,500,402s-.76,7,1.87,4.5,5.63-7,3.63-10-2-7-1.5-10.27,8.83-3.73,7.42-6.73,1.83-5,4.08-3.5-2,10.25,3.38,12.75.62,7-2.13,11-5,3.5-2.9,6.5,5.3-4.5,7.48-7.5,5-7,3.84-9.5S518,385,518.88,383s1.38-6.5,0-8.5,3-3,6.55,1.75,6.56,11,7.81,10.75,0,6.5,3.27,6.25,8.06-4,8.77,0-5,4.25-1.79,10,5.75,5.75,6.75,5,2.75-2.25,0-4-6-4.5-4-6.75,1.74-7,0-8.25-6.74,1-8.49.25-1.75-3-4-6.5-4-9.08-6.75-10.16,3.67-2.67,5.17-1.34,4.5,6.67,8,8,1.5,3.83,2,5.17,5.72,1.5,4-1.67.47-4.83,2.14-3.83,4.12,5,3.39,7.17-1.73,2.33-1.06,6-.83,4.17.17,6.5,3.67,1,3.17-1.33-1.67-3.67,0-7.17a10,10,0,0,0,.06-8.83c-1.06-2.17,4.29-3.5,4.95,0s-1.35,11.67-1.35,14.17-3.67,10.17-1.33,11.67,3.5-2.67,3.83-4.33-.33-6.33.83-8.67,1.67-7.67,1.5-10.17,2.83-.33,2.5,1.5a81.26,81.26,0,0,0-.67,11.33c0,4.83.83,5.5,0,9.33s-2.11,9.39.69,8.86,3.64-3.86,3-6.36a35.43,35.43,0,0,1-.83-9.5c.17-2.83.93-6,1.05-7.67s2.73,1.17,2.34,3.83a27.18,27.18,0,0,0,0,9c.61,2.83,1.28,4.5.44,7.67s-1.89,5.33-.44,7,2.44.17,2.78-2.17a29.31,29.31,0,0,0,0-10.17c-.83-4-2.5-4.33-.83-6.67s2.75-1.92,3.25,1.33-3,2.75,0,8,1.5,13.5,2.25,16.75,3.5,6.5,4,1.75-.25-3.75,0-6.25-1.75-3.36-1.75-6.55,5.5-1.45,5.5,3.3.25,5.75,0,10.75-1.78,5.5.11,9.5,1.64,6.25,3.14.5,4.25-4.5,3.75.75-1.75,3.25-1.75,9.75-2.38,16.58,1.81,9.92.94-7.17,4.19-11.42,5,3.09,4.25,7.42-4.91,9.08.17,10.33,2.58,8.73,2.58,12.62.5,8.85,2.25,7.74,3.75-.28,3.75-4.44.58-8.67,3.33-12.08,4.78-4.75,6.83-5.67c1.55-.69,3-1.44,5-.67,1.77.68,4,4.92,2.83,7.5s-3.83,6.5-3.17,10.33c.35,2,4.33,2.57,3.83,5.91s-1.41,4.14-3.66,6.42a7.8,7.8,0,0,1-6.4,2.89c-3.55,0-5.6,1.69-5.6,7.69s0,19-2.54,20.79-18.93,9-18.38,12.46,12.36,9,14.88,10.91,4.37,1.16,4.7-1.75-3.08-11.42,0-10.67,4.08,3.13,3.58,9.19-.83,7.31,1.21,7.31,2-2.25,2.14-4.75,1.6-3.75,0-9.25-1.4-7.71,0-9,2.65,5.16,4.15,10.44.43,10,.34,15-2.44,3,0,8,2.41-1.25,2.41-4.25-1.5-3.75,0-7.75a22.5,22.5,0,0,0,1-12.75c-1-3.75-2.25-4-2.25-7.25a85.6,85.6,0,0,1,.75-8.75s6.25-.75,8,10.25-2.5,10.08,1.75,14.17,8.08,1.33,10.66,5.33,4.09,1,3.59-1-4-2.67-7.25-4.33-6-4.67-6-8.67,1.5-10.82-.25-14,4.22,2,4.61,8.28,0,9.73,4.84,8.61,3.55,5,5.8,4.33,2.25-2.19-1-5.44-5.5-.75-6.5-3.75-1.5-8.5-2-10.75-2.3-13.65-4.28-13.45,7.43-3.8,8,7.7.21,12.5,7.38,13.5,9.17-6,3.17-5.5-6.12-5-8.81-12-2.47-12.09-6.58-12.54,3.39-2.89,9.89,8.58,15,0,15-4.75-2.5-2.72-7,0-3.5.22-7.5-6.78-5.12-13.17-3.81-18.08S654,463,653.5,458s-7.68-64-24.84-79.5-32-25.5-47.33-28.5-36.14-.5-52-8.5S496,315,487.5,319.5s-25.5,6-35,9.5S435,346.5,445,344s13.37-6.5,22.43-10,15.07-5,21.57-4,4.74,6,12.87,10.5,16.37,4,0,9.5-1.5,4-34.43,13-48.43-5-57.93,8-20,23-14.5,25,9-14,17-18.5,14.5-6,24-5,7.43,4,21.46,3,8,1.5-7,14S430,393.89,416,415.2s-10.5,25.8-28.5,33.05S373.5,472,382,472s-2-6.32,2.5-10.91S403,453,408,444s6-20.5,14-23,12-12.11,16-5.8,2.5,2.3,7-4.2S455.69,411.16,454.67,415.2Z" transform="translate(-373.3 -317.3)"/></svg>