<svg id="cabelo06" xmlns="http://www.w3.org/2000/svg" viewBox="0 0 182.36 224.13"><defs><style>.cls-1{fill:#211b00;stroke:#211915;stroke-miterlimit:10;stroke-width:3px;}.cls-2{fill:#211c10;}</style></defs><title>cabelo06</title><path class="cls-1" d="M475.7,392.54s40.61,3.13,58.62,4.46,34.68,5.33,44,5.33,16.06,6,23,3.33,36.91,8.18,35.06,3.46-3.43-40.5-42.09-54S487.07,340.74,475.7,392.54Z" transform="translate(-465.44 -345.83)"/><path class="cls-1" d="M637.75,494.5s-6.58,38.81-6.58,46.95-3.35,7.47-3,14.81a15,15,0,0,1-4.32,11.46,85.74,85.74,0,0,0-7.88-9.85c-3.43-3.37-2.86-3.93-9.08-8S588.58,541,588.58,541s17.6-10.42,23.17-15.17S632.64,507.67,637.75,494.5Z" transform="translate(-465.44 -345.83)"/><path class="cls-1" d="M467.16,508.48s4,21.78,4.59,31.48-3.1,13.92-2.29,19.7,6.25,1.5,6.25,1.5,7.42-9.17,10.59-11.84S501.38,541,501.38,541s-12.87-8.46-18.88-14C468.81,514.38,466.05,502.17,467.16,508.48Z" transform="translate(-465.44 -345.83)"/><path class="cls-1" d="M620.14,407.71s7.52,20.62,12.86,32,2.66,47.12,4.87,47.58c6.05,1.26,7.54-13.52,8-19.66a114.78,114.78,0,0,0-.28-22.92c-1.09-9-1.16-20.27-2.58-24s-2.91-15.75-9.17-20.42S618.62,403.61,620.14,407.71Z" transform="translate(-465.44 -345.83)"/><path class="cls-2" d="M602.5,431v3a2.5,2.5,0,0,0,5,0v-3a2.5,2.5,0,0,0-5,0Z" transform="translate(-465.44 -345.83)"/><path class="cls-2" d="M602.5,441.67v3.67a2.5,2.5,0,1,0,5,0v-3.67a2.5,2.5,0,1,0-5,0Z" transform="translate(-465.44 -345.83)"/><path class="cls-2" d="M612.5,440v3.33a2.5,2.5,0,1,0,5,0V440a2.5,2.5,0,0,0-5,0Z" transform="translate(-465.44 -345.83)"/><path class="cls-2" d="M607.83,454.33V456a2.5,2.5,0,0,0,5,0v-1.67a2.5,2.5,0,0,0-5,0Z" transform="translate(-465.44 -345.83)"/><path class="cls-2" d="M602.5,467v4.33a2.5,2.5,0,1,0,5,0V467a2.5,2.5,0,0,0-5,0Z" transform="translate(-465.44 -345.83)"/><path class="cls-2" d="M617.83,454.33v2a2.5,2.5,0,1,0,5,0v-2a2.5,2.5,0,0,0-5,0Z" transform="translate(-465.44 -345.83)"/><path class="cls-2" d="M609.83,424v1.67a2.5,2.5,0,0,0,5,0V424a2.5,2.5,0,0,0-5,0Z" transform="translate(-465.44 -345.83)"/><path class="cls-2" d="M602.24,414.34l.33,1.33a2.5,2.5,0,0,0,4.82-1.33l-.33-1.33a2.5,2.5,0,1,0-4.82,1.33Z" transform="translate(-465.44 -345.83)"/><path class="cls-2" d="M612.83,413.67v1.67a2.5,2.5,0,1,0,5,0v-1.67a2.5,2.5,0,1,0-5,0Z" transform="translate(-465.44 -345.83)"/><path class="cls-2" d="M619.17,431.33V434a2.5,2.5,0,0,0,5,0v-2.67a2.5,2.5,0,0,0-5,0Z" transform="translate(-465.44 -345.83)"/><path class="cls-2" d="M622.22,443.67l.34,2a2.51,2.51,0,0,0,3.08,1.75,2.57,2.57,0,0,0,1.75-3.08l-.34-2A2.51,2.51,0,0,0,624,440.6a2.57,2.57,0,0,0-1.75,3.08Z" transform="translate(-465.44 -345.83)"/><path class="cls-2" d="M626.83,454.33v3.33a2.5,2.5,0,0,0,5,0v-3.33a2.5,2.5,0,0,0-5,0Z" transform="translate(-465.44 -345.83)"/></svg>