<svg id="cabelo17" xmlns="http://www.w3.org/2000/svg" viewBox="0 0 242.19 174.87"><defs><style>.cls-1{fill:#211b00;stroke:#211915;stroke-miterlimit:10;stroke-width:3px;}</style></defs><title>cabelo16</title><path class="cls-1" d="M448.16,454.83c-7.94,8.69-30.32-14.06-28.66-37.33,1.75-24.5,18.5-22.5,18.5-25S435.33,361,454.67,349c5.59,3,1.33,10.5,7.83,12s22,5,23.5,0,8-34.5,53-38,57,25,57,27.5,32-11,51.5,20.5,8,52,5,57,12.32,69-23.84,66.5c0-2.85,2.21-5.33,0-8.14s-4.38-6-3.85-7.74,4.75-7,3.85-10.12-2.36-8-7.41-5.74-7.92,3.24-9.58,6.24-6.92,4.5-6.17-1.5.5-16-6.5-16.5-31.25-10.25-28-21,4.75-14.75,9.25-18.5,3.5-15.25-3.25-14.5-42.33,12-50.92,15.75S492.25,420,482,418s-10-1-10,7.12,2,10.88-2.5,14.63-6,2.5-6,8.5-5,2.75-5,2.75S458.28,443.75,448.16,454.83Z" transform="translate(-417.91 -321.2)"/></svg>