<svg id="cabelo07" xmlns="http://www.w3.org/2000/svg" viewBox="0 0 108.81 194.12"><defs><style>.cls-1{fill:#211b00;stroke:#211915;stroke-miterlimit:10;stroke-width:3px;}</style></defs><title>cabelo07</title><path class="cls-1" d="M518.88,401s.12-13,2.12-19.5,5.47-12,6.61-18.5-1.7-4.5,5.1-12,7.88-11,12.58-22.5,4.71-.5,4.71,3V339s3.5-10,12.5-13.5,8.5-6.17,9-3.5-2.83,3.67-4.17,6.67,3.33,2,10,0,18.67-2.33,16-.33-4.67,2-6,4.33,6.33,4,10.67,4,5.33,5.33,5.33,5.33a10.7,10.7,0,0,1-7,0c-3.67-1.33-3,2.67-1,3.33s8,2,11.33,4.33,5,5.53,1.67,5.43-3.67,1.9-1,3.23,5.67,7.33,7.33,9.67.53-1.33,3.93,3.67,5.07,2.67,5.73,5.33-.67,3.33,0,5.67a14.26,14.26,0,0,1,.19,5.26s-9.88-9.79-12.86-11.88a162.08,162.08,0,0,0-16.48-9.29c-2.77-1.13-18.85-10.84-28.52-5.8S556,369,554,373.33s-8,12.67-13,18-2.67,8.33-9.67,9.67S520.77,404,518.88,401Z" transform="translate(-517.38 -319.42)"/><path class="cls-1" d="M597,467.5s-3.33,11.83,1.67,9.5,4.33,1.67,4,7-1.21,19.9.23,22.78,3.44-.12,4.11-1.45-.67,9.07,1.33,6.2,4.67-3.09,4.33-15S611,476.18,611,470.26s.33-11.59-2.33-10.59-2.33,4.92-5.67,5.3S597.78,464,597,467.5Z" transform="translate(-517.38 -319.42)"/></svg>