<svg id="cabelo05" xmlns="http://www.w3.org/2000/svg" viewBox="0 0 198.62 171.18"><defs><style>.cls-1{fill:#211b00;stroke:#211915;stroke-miterlimit:10;stroke-width:3px;}</style></defs><title>cabelo05</title><path class="cls-1" d="M458,451s4,9,4,2.52,1.67-27.52,5.67-35.18,6.63-12.67,15.48-19.33S516,396.33,521,411.67s10.54,49.4,18,58.59,18.67,20.41,26.67,21.41,32-2.17,35.67-9.75,7.33-10.92,7.33-7.92.67,7.57,1.67,4.62.56-8.6,3.68-11.44,7.23-5.28,9.73-4.32,5.58,1.14,4.92,4.64a52.75,52.75,0,0,1-3.2,9.08l-.37,5.34s3.61,3.57,3.54,5.33-1.82,5.92-1.82,5.92-.77,2.1-4.45,2.34-3.42,12.51-2.19,16,9.17,5.06,19.84-12.4,10.67-48.46,10-57.8-5.67-40-17.33-55S603,358,577.33,352.33s-39.29-9.67-60.15-4S468.33,380.67,462.33,395,450.9,433.33,458,451Z" transform="translate(-453.12 -344.09)"/></svg>