<svg id="cabelo10" xmlns="http://www.w3.org/2000/svg" viewBox="0 0 190.94 145.04"><defs><style>.cls-1{fill:#211b00;stroke:#211915;stroke-miterlimit:10;stroke-width:3px;}</style></defs><title>cabelo10</title><path class="cls-1" d="M457.75,449.25c4.37,1.48,5.25-2.75,7.75-16.75s17.25-38,24.38-42,24-10.17,51.88-6.83c26.9,3.22,35.92,3.5,43.92,14S601.5,425.5,603,440.5s3,33.17,3.5,34.83,3.17,3.28,5.17-4.33,6.1-8.78,8.83-9,5.86-.09,6.95,3,1.49,7.54,0,9-3.06,4.63-2.78,6.33,3.36,4.33,4,6-.23,5.12,0,6.81,2.22,5.44,6.53,3.39,8.71-20.9,9.14-26.22.76-27.27-2.93-42.33-7.45-27.9-12.74-34.64-16.39-18.59-25.83-23-22.72-9.92-31.83-11.83-22.17-3.67-28.24-3.41-20.51,1.51-28.89,5.39-21.08,10.89-27,17.75-12.4,15.13-15.08,20.31S464.5,414,463,419.49,453.83,447.93,457.75,449.25Z" transform="translate(-455.14 -353.63)"/></svg>