<svg id="cabelo09" xmlns="http://www.w3.org/2000/svg" viewBox="0 0 206.21 245.13"><defs><style>.cls-1{fill:#211b00;stroke:#211915;stroke-miterlimit:10;stroke-width:3px;}</style></defs><title>cabelo09</title><path class="cls-1" d="M457.25,451.75c1.3.44,4,8,5.17-5.37.72-8.24,33.15-38,45.53-60.71s11.36-14.94,33.8-16.17,27.92,16.17,39.58,29.5,20.53,23.67,19.43,37.83-1,18.09,3.61,28.13,3.38,21.28,3,38S587.66,535.69,590,538.67s17.74,9.67,20.39,12.46,13,14.09,15.78,18.87.83-24,6.17-28.5,19.33-35.65,18-78.74-6-80.42-36.32-99.76-64.65-28.39-72.26-22.5c-9,7-22.85,3.17-33.8,9.17s-23.79,16.67-37,38-17.24,41-19.24,49.17-5.12,16.65-4.23,50.41,2.55,41.47.72,57.95.06,16.88-.88,25.35,8,12.68,8.6,8.95,8.56-7.14,11.29-10.36S482,552.75,482,552.75l16.06-10.14,3.61-1.75-17.59-14.32s-8.52-8.49-11.09-12.39S465.49,500,465.49,500l-3.07-10s1.06-4.86.08-6c-1.7-2-7.86-1.09-10.18-2.27A5.71,5.71,0,0,1,450,479c-.49-2.25,1.88-6.7,2-9,.18-3.37-1.28-11.12.5-13.5S454.92,451,457.25,451.75Z" transform="translate(-445.71 -337.22)"/></svg>