<svg id="cabelo14" xmlns="http://www.w3.org/2000/svg" viewBox="0 0 170.29 118.28"><defs><style>.cls-1{fill:#211b00;stroke:#211915;stroke-linecap:round;stroke-miterlimit:10;stroke-width:3px;}</style></defs><title>cabelo14</title><path class="cls-1" d="M645.73,436.08a34.63,34.63,0,0,0,.07-4.76c-.33-5.94-2.1-11.18-4.65-14.74q-.55-2-1.13-4.06a10,10,0,0,0-2.1-6.88q-.59-1.82-1.22-3.6a9.93,9.93,0,0,0-4.49-11.1c-.55-1.17-1.12-2.29-1.7-3.36.35-1.62-1.4-4.18-4.43-6.74-2.43-2.92-5-4.81-7.8-5.26,0-.17,0-.34,0-.51,0,0-.6-.48-1.7-1.28a1.66,1.66,0,0,0,.16-.2c1.29-2.23-2.92-7.07-9.39-10.81-5.13-3-10.14-4.34-12.64-3.67-1.64-2.08-6.1-4.26-11.59-5.46-4.83-1.06-9.23-1.08-11.84-.25-1.32-2.09-6.65-3.66-13-3.66-4.58,0-8.62.81-11,2l-.66,0a17.47,17.47,0,0,0-7.14-1.37,16.27,16.27,0,0,0-7.92,1.78,17.46,17.46,0,0,0-4.42-.55c-4.4,0-8.09,1.5-9.12,3.52a17.12,17.12,0,0,0-1.78-.09c-4.24,0-7.79,1.53-8.72,3.59l-.86,0c-5.3,0-9.59,2.09-9.59,4.67,0,0,0,0,0,0-3.33.24-6,1.55-7,3.28a8.17,8.17,0,0,0-5.7,5.09,8.73,8.73,0,0,0-.28,6.46,5.65,5.65,0,0,0-.79,2,4.77,4.77,0,0,0-.5.89c-1.25,3,.71,6.63,4.38,8.17,3.16,1.33,6.56.66,8.24-1.46a9,9,0,0,0,2.3,1.4,7.57,7.57,0,0,0,7.66-.68l.72.06a9.75,9.75,0,0,0,3,2c3,1.28,6.21.93,8.09-.65,1.14,2,5.06,3.47,9.74,3.47,5.28,0,9.6-1.88,10-4.26h1.44a14.34,14.34,0,0,0,5.35,3.78c4.6,1.94,9.25,1.51,11-.87l.09,0c3.65,1.54,7.53.73,9.07-1.78,1.58,2.18,5.55,3.58,10.13,3.32a17.73,17.73,0,0,0,4.73-.9,15.8,15.8,0,0,0,7.47,1.26,16.75,16.75,0,0,0,6.17-1.48q1.45.12,2.83.21a16.48,16.48,0,0,0,4.31,5.2A18.19,18.19,0,0,0,602.7,400l.24,2.23a14.26,14.26,0,0,0-1.76,3c-2.47,5.86-.7,12.32,3.9,15.33l.21,1.62a12.92,12.92,0,0,0,1.56,11l0,.22a12.85,12.85,0,0,0,1.46,8.58q.21,1.09.42,2.1c-.86,5.49,1.65,10.83,6.46,12.86a10.22,10.22,0,0,0,3.69.79c4.85,1.46,9.85,1.87,9.75,5-.15,4.89,21,.91,21-3.09C649.67,458.57,648.31,448.7,645.73,436.08Z" transform="translate(-480.88 -348.24)"/></svg>