<svg id="cabelo03" xmlns="http://www.w3.org/2000/svg" viewBox="0 0 220.08 241.98"><defs><style>.cls-1,.cls-2{fill:#211b00;}.cls-1{stroke:#211915;stroke-miterlimit:10;stroke-width:3px;}</style></defs><title>cabelo03</title><path class="cls-1" d="M468,378s-23,52.53-24,75.52,4.88,34.24,3.44,45.61-4.11,27.87.72,36.87,12.24,13,9.79,24.5,2.88,15.69,6.95,11.08,10.73-9.76,14.91-14.92a96.86,96.86,0,0,1,9.65-10l12.21-5.8s-9.56-7-14.53-11.54-15-15.29-17.77-20.84-6.3-18-6.3-18L462.5,484a48.1,48.1,0,0,1-6-.75c-2.72-.53-5.38-.65-6.07-2.78-1.13-3.47.25-5.62.54-7.47.5-3.25-.5-4.5-1-6.83s-2.81-7.2-.84-11.56c2.11-4.67,8.59-5.36,8.59-5.36s2.64-22.67,7.24-34.05,4.77-23.92,22.37-37.2,34.83,13.5,42,20S554.5,434.33,566,434.67s22,4.83,26.5,16.33,10,24.17,11,30.33,1.3,30.72,6,30.2c18.28-2,5.56-18.55,4.55-24.29s-3.86-13.53-2.34-16.24,5.47-7.83,8.67-8,10.34,1.77,7.92,7.26-4.16,7.46-3.59,10.08c.27,1.24,1.63,2,2.76,4.25s.68,6.88-.63,8.58c-1.08,1.41-3.73,2.19-6.64,2.5s-11.46,9.47-18.8,21.8-9.09,19.93-9,22.49,14.36,7,19.33,12.35,12.68,14.81,12.68,14.81,2.9,9.88,20.61-37.79,21.71-106.67,7-128S627.33,358,587.67,344.67,521,331.67,504,342,471.25,370.3,468,378Z" transform="translate(-442.38 -332.94)"/><path class="cls-2" d="M607.5,501.75s-.5,10.5,4.25,6.25,7.41-6,4.25-12.62C613.59,490.35,607.44,499,607.5,501.75Z" transform="translate(-442.38 -332.94)"/></svg>