<svg id="cabelo16" xmlns="http://www.w3.org/2000/svg" viewBox="0 0 239.66 231.08"><defs><style>.cls-1{fill:#211b00;stroke:#211915;stroke-miterlimit:10;stroke-width:3px;}</style></defs><title>cabelo15</title><path class="cls-1" d="M463.5,399.5s-.47-43,33.52-57,50.48,1,54,0,38-19.51,63-6,25,37,25,51-.5,27,8,25.5,11.5-5,11.5-5,9.5,12.5,4.5,20,10.5,9.5,12.5,20.25,3.5,37.86-18,48.31-28,17.44-21,19.94,14,.5,15.5,0,.5,15.5-13.5,17.5-17.26,3-19.13,2.5,4.13,14.17,6.63,12.83-5.37,12.18-7.4,10.11-16.66-14.73-20.93-17l-4.27-2.26-2.1-1s14.21-10.71,17-15.21,9.25-19.75,8.75-21.5a6.84,6.84,0,0,0-.81-1.65,2.63,2.63,0,0,1,2.36-4h0c1.65.16,7.15-.09,8.9-1.84s2.25-4.25,2.75-5.75-1.59-6.25-1.59-6.25a7.09,7.09,0,0,0-2.66-1.67c-1.25-.28,0-2.58,1.25-4.83s3.25-7.5,3-9-1.5-9.49-14.25-4.74c-5.75,6.49-7,9-7,6.24s-6.25-9.16-5.5-13.33-10.25-11.34-12.5-21,3.75-18.92,6-21.67-3-4.75-6-3.75-11.5,9-14.25,9.25-8-8-5.75-13.75-28.25,9.89-37,10.45-14.25.8-13-2.2,8.5-13,7.25-16-7.75-3.25-12,3.5S505.5,422.75,502,421s-10.6-3.61-10.43-5.8-1.93,6.27,0,9.79-.32,12.52-3.32,15.77-15.5,17.09-20,14.92-9.5-4.67-9.5-4.67-4.56-3.36-7.5,1.22-3.22,7.35-2.74,10.34,1.25,4.71,1.37,7.7-.14,8.72.25,9.4a11.89,11.89,0,0,0,7.34,4c3.78.37,4.16.36,5.93,8.63s6.44,16.94,6.44,16.94S485.72,528,488,530s8.19,6.14,9,6.65-2.77,7.89-17,2.14S459.5,526,458.75,524s7.75-.25,9.75-2-.75-9.75-5.5-12.75S449.25,499,445.5,490.5s-7.25-17.67-4.75-30.83,6.5-20,8.75-22.83-5.75-8.83-5.75-15.33.5-12.5,1.5-14,4.5,4.5,7.75,5.75S465,404.25,463.5,399.5Z" transform="translate(-438.41 -330.08)"/></svg>