<svg id="cabelo04" xmlns="http://www.w3.org/2000/svg" viewBox="0 0 266.79 229.26"><defs><style>.cls-1{fill:#211b00;stroke:#211915;stroke-miterlimit:10;stroke-width:3px;}</style></defs><title>cabelo04</title><path class="cls-1" d="M448.75,467.5S435,464.5,432.5,441,417,406.5,418,389.5s.5-28.5,13.5-47,43-50.5,63-51,31-1.5,41-3,88-7,114,26,29.5,37.5,26,52,3.5,10,5.5,26.5,0,22.5-7,35-11.5,17.68-11.5,33.09.5,34-9,35.47-11,4.51-17.5,10.23-6.52,8.82-11.76,5-12.3-10.36-10-13.26,9.58.38,14-5c2.31-2.86,2.29-6.45,1.38-8.12-1.79-3.29-3.37-3.37-3.46-5-.12-2.33,1.5-4.67,2.83-7.79,1.17-2.73,1.25-7.21-1.12-9.21-4.2-3.53-9.48-1.93-12.11.32a17.59,17.59,0,0,0-5.57,7.14c-.72,1.88-.61,11-4.11,11s-11-3.3-11-3.3-1-4.86,7.25-15.86S623.25,432,621.5,425s-12-28.73-27-33.48-26.67-15.75-53.17-14.5-41.26,7-49.76,14S473.25,402.5,471,408.5s-9.75,36-9.75,39.75,6.26,19.25,4,19.25c-2.42,0-8.29-12-7.79-16.5s-4.77-1.89-8,1.22c-1.92,1.87-2.69,3-2.75,5.78C446.58,465.08,448.75,467.5,448.75,467.5Z" transform="translate(-416.45 -285.72)"/></svg>