<svg id="cabelo01" xmlns="http://www.w3.org/2000/svg" viewBox="0 0 194.41 163.8"><defs><style>.cls-1{fill:#211b00;stroke:#211915;stroke-miterlimit:10;stroke-width:3px;}</style></defs><title>cabelo01</title><path class="cls-1" d="M586.33,359c-16.25-6.15-51.87-13.3-79,1.17-2,1.09-4.83,3.58-4.83,2.58s2-8.05,0-7.65-6.75,4.65-7.75,7.9-5,2-5.75,1.25-5-9.55-7-9.15-2.25,3.65-.5,8.4,1.25,9,.25,9.25S471,374,471,376.75s2,3.25,4.25,3.25,4-1,4.5.5S468.5,397.5,465,407s-10.75,31.5-7.25,42.25c0,0-.08,6.75,6.58,6.42s7.33-7.58,6.33-9.29,15.67-12,22.67-25.38,6.7-18.67,6.35-20.33.55-4.67,8.27,4.67,40,10.33,54.55,5S582,403.67,583,405a4.49,4.49,0,0,1,0,5.33c-1.33,1.67-4,15.67-2,26.33s13.33,21.85,16,24.42a26.77,26.77,0,0,0,5,3.87s-1.67,4.55,4,5.3,4.92-1.86,7.5-4.76c2.75-3.08,7.83-4.92,11-4a10.1,10.1,0,0,1,3,1.54,5.52,5.52,0,0,1,2.13,4.38c.28,5.3-3.26,8.67-3.58,11.16-.44,3.38,1.14,4,1.75,4.72,1.7,2,2.44,2,1.81,6.54a6.73,6.73,0,0,1-2.85,4.29c-1,.84-2.08.92-3.7,1.18-2.46.41-5.14.58-6.14,1.2s2.5,4.44,4.17,6.78-1.67,9.17,1.83,9.17,16-10.37,19.67-21.5C646.53,479.32,668.58,384,586.33,359Z" transform="translate(-455.32 -350.2)"/></svg>