<svg xmlns="http://www.w3.org/2000/svg" viewBox="0 0 193.81 109.51"><defs><style>.cls-1{fill:#009bdb;}.cls-2,.cls-3,.cls-4{fill:none;stroke:#211915;stroke-miterlimit:10;}.cls-3{stroke-linecap:round;}.cls-3,.cls-4{stroke-width:3px;}</style></defs><title>camisa01</title><g id="CorCamisa01"><path class="cls-1" d="M501.5,541.5a23.36,23.36,0,0,0-12,5.17c-6.22,4.88-16.29,15.52-16.29,15.52l-8.27,9.39-2.52,2.67-5.87,1.5s-1.63,5,5.92,9.56A117.58,117.58,0,0,0,477,592.75l-6.09,7.41s-3.79,4.15-11.54,5.09c.38,0-.75.25-.75.25S473.75,646,538,647.75s69.38-7.25,69.38-9-1.9-5.4-1.9-5.4l-4.71-13.4s14.29-2.33,22.32-5.78,18.44-8.5,20.16-10,3.44-5.06,3.44-5.06-1.65-4.22-4.44-6.37-13.3-18-13.3-18l-10.29-15-8.27-8.71-12.64-7.54L587.64,540l-13.81,6.7-12.27,10.7S552.87,562.21,549,563s-7.4,2.28-13.26,1.67-10.25-1.68-12.4-2.83-8.1-6.42-9.23-8.56a57.16,57.16,0,0,1-2.69-8.09S501.25,538.25,501.5,541.5Z" transform="translate(-454.38 -538.46)"/></g><g id="camisa01"><path class="cls-2" d="M501.5,541.5" transform="translate(-454.38 -538.46)"/><path class="cls-3" d="M501.5,541.5s-10,1.63-19.5,11.25-18.37,20.63-19.62,21.5-5,1.25-5.87,1.5-1.12,3.63,1.25,6,10.63,7.5,13.5,8.75,5.75,2.25,5.75,2.25" transform="translate(-454.38 -538.46)"/><path class="cls-3" d="M481.88,569.13s1.88,13.5.75,15" transform="translate(-454.38 -538.46)"/><path class="cls-3" d="M489.88,569.13s-4.37,11.25-5.37,12.38-9.12,14.38-12.75,17.63" transform="translate(-454.38 -538.46)"/><path class="cls-3" d="M511.42,546.67s3.25,18.33,25.75,18,35.78-16.48,36.67-18" transform="translate(-454.38 -538.46)"/><path class="cls-3" d="M587.64,540s13.86,3.91,21.19,9.83c6,4.83,15,15.87,17.33,20.21s13.5,22.67,17.33,24.83,5.33,6.17-2,10.5-21.83,11.17-34,13.67a51.2,51.2,0,0,1-21.5,0s-2.33-13.33-4.67-14.17" transform="translate(-454.38 -538.46)"/><path class="cls-3" d="M462.42,585.31s-3.29,15.19-3.79,18.94" transform="translate(-454.38 -538.46)"/><path class="cls-3" d="M637,607.84s6,6.66,6.28,11.16" transform="translate(-454.38 -538.46)"/><path class="cls-4" d="M600.76,619.95s2.11,7.3,4.11,10.43a18.74,18.74,0,0,1,2.5,6.63" transform="translate(-454.38 -538.46)"/></g></svg>