<svg xmlns="http://www.w3.org/2000/svg" viewBox="0 0 219.85 120.96"><defs><style>.cls-1{fill:#292838;}.cls-2{font-size:12px;fill:#211915;font-family:MyriadPro-Regular, Myriad Pro;}.cls-3,.cls-4{fill:none;stroke:#211915;stroke-miterlimit:10;}.cls-4{stroke-linecap:round;stroke-width:3px;}</style></defs><title>camisa05</title><g id="Camada_57" data-name="Camada 57"><path class="cls-1" d="M447.1,601.25a35.5,35.5,0,0,0,5.53-13.16c.62-3.44.84-6.27,2.69-9.94,1.25-2.48,4.78-5.34,6.61-9,5.36-10.81,18.46-23.43,21.06-25S501.67,535,501.67,535s7.66,1,10.74,12.65c2.29,8.67,10.49,15.29,16.26,16.12s11.12,1.65,17.36-.1,12.14-3.87,15.95-6.51,7.18-7.34,10.85-11.5,9.21-10.41,16.83-9.6c7.36.78,19.92,3.88,26.79,12,2.78,3.27,8,5.05,11.87,8.62,5.64,5.25,9.92,13.29,12.67,17.73,4.62,7.45,25.4,53.14,25,54.28-.79,2.23-12.62,10.15-29.59,16.88-26.18,10.37-70.32,14.28-123.41,5.8-40.33-9.33-49-22.67-52-25.67S442.19,606.5,447.1,601.25Z" transform="translate(-446.16 -535)"/><text class="cls-2" transform="matrix(0.99, 0.14, -0.14, 0.99, 59.54, 59.87)">FUGAZI</text></g><g id="Camada_56" data-name="Camada 56"><path class="cls-3" d="M501.5,541.5" transform="translate(-446.16 -535)"/><path class="cls-4" d="M500,537s-16.07,4-25.57,13.67-13.51,21.64-14.76,22.52-3.46,3.32-4.33,3.57-.16,2.26-.67,5.58c-.36,2.38-3.27,7.58-5.17,12.45-1.14,2.92-.4,9.47-.4,9.47" transform="translate(-446.16 -535)"/><path class="cls-4" d="M481.88,569.13s1.88,13.5.75,15" transform="translate(-446.16 -535)"/><path class="cls-4" d="M489.88,569.13s-4.37,11.25-5.37,12.38-9.12,14.38-12.75,17.63" transform="translate(-446.16 -535)"/><path class="cls-4" d="M511.42,546.67s3.25,18.33,25.75,18,35.78-16.48,36.67-18" transform="translate(-446.16 -535)"/><path class="cls-4" d="M607.5,634.5C595.33,637,586,619,586,619s-2.33-13.33-4.67-14.17" transform="translate(-446.16 -535)"/><path class="cls-4" d="M587.64,537s16,.08,23.36,6c6,4.83,19,12.67,26,23.88,2.61,4.17,21.44,45.31,22.33,49.63" transform="translate(-446.16 -535)"/></g></svg>