<svg id="oculos01" xmlns="http://www.w3.org/2000/svg" viewBox="0 0 176.55 78.58"><defs><style>.cls-1,.cls-2{fill:#211915;}.cls-1{stroke:#211915;stroke-miterlimit:10;}</style></defs><title>oculos01</title><path class="cls-1" d="M413.16,425" transform="translate(-458.45 -418.59)"/><path class="cls-1" d="M579.23,427.27l-33.17-2.62a16.06,16.06,0,0,0-17.23,14.7l-2.62,33.17a16.06,16.06,0,0,0,14.7,17.23l33.17,2.62a16.06,16.06,0,0,0,17.23-14.7l2.62-33.17A16.06,16.06,0,0,0,579.23,427.27Zm9.15,19.86-2.19,27.66c-.69,8.78-6.48,13.36-15.26,12.67l-27.66-2.19c-8.78-.69-13.36-6.45-12.67-15.23l2.19-27.66c.69-8.78,6.48-13.4,15.26-12.7l27.66,2.19C584.49,432.56,589.07,438.34,588.37,447.12Z" transform="translate(-458.45 -418.59)"/><path class="cls-1" d="M509.73,421.59l-30.93-2.45a16.06,16.06,0,0,0-17.23,14.7l-2.45,30.93A16.06,16.06,0,0,0,473.83,482l30.93,2.45A16.06,16.06,0,0,0,522,469.75l2.45-30.93A16.06,16.06,0,0,0,509.73,421.59ZM521.16,442l-1.91,24.18c-.69,8.78-7.48,13.4-16.26,12.7l-25.75-2c-8.78-.69-13.36-6.48-12.67-15.26l1.91-24.18c.69-8.78,6.52-11.36,15.3-10.67l25.75,2C516.31,429.44,521.86,433.2,521.16,442Z" transform="translate(-458.45 -418.59)"/><path class="cls-1" d="M523.37,432s-.61-3.25,3.52-2.74,4.7,2.36,4.7,2.36l-2,2.41s-1-3.41-2.87-3.38S523.58,433.9,523.37,432Z" transform="translate(-458.45 -418.59)"/><path class="cls-2" d="M585.15,428.93c21.15,2.14,8.51,11.12,8.51,11.12a13.87,13.87,0,0,0-1.38-3.95,26.66,26.66,0,0,0-4.2-5.26C587.2,430.17,585.15,428.93,585.15,428.93Z" transform="translate(-458.45 -418.59)"/><path class="cls-2" d="M472.72,419.84s-23.51-5.35-10.17,9.66C466,424,465.57,422.72,472.72,419.84Z" transform="translate(-458.45 -418.59)"/><path class="cls-1" d="M593.93,444.5,616,465.43l-6,9.08-18.73-18.84S591.55,442.24,593.93,444.5Z" transform="translate(-458.45 -418.59)"/><path class="cls-1" d="M628.66,475.33s9.41,23.17,4.34,21.22-4.34-6.38-4.34-6.38l-1.1-5.43s-3.35-2.43-2.89-4.41S627.47,472.28,628.66,475.33Z" transform="translate(-458.45 -418.59)"/></svg>