<svg id="Camada_40" data-name="Camada 40" xmlns="http://www.w3.org/2000/svg" viewBox="0 0 178.82 81.29"><defs><style>.cls-1{fill:#211915;stroke:#211915;stroke-miterlimit:10;}</style></defs><title>oculos02</title><path class="cls-1" d="M492.76,417.27a33.32,33.32,0,1,0,33.32,33.32A33.32,33.32,0,0,0,492.76,417.27Zm0,60.44A26.27,26.27,0,1,1,519,451.44,26.27,26.27,0,0,1,492.74,477.71Z" transform="translate(-458.95 -416.77)"/><path class="cls-1" d="M564,418.69a37.69,37.69,0,1,0,37.69,37.69A37.69,37.69,0,0,0,564,418.69Zm-.47,69a30.35,30.35,0,1,1,30.35-30.35A30.35,30.35,0,0,1,563.56,487.73Z" transform="translate(-458.95 -416.77)"/><path class="cls-1" d="M520.62,437.88s1.11-1.83,5.92-2.46,7.94,4.69,7.94,4.69l2.63-4.74s-4.61-6.41-11-7.15a8.3,8.3,0,0,0-8.69,4.53Z" transform="translate(-458.95 -416.77)"/><polygon class="cls-1" points="136.56 32.9 154.8 50.73 150.66 59.38 134.48 45.98 136.56 32.9"/><path class="cls-1" d="M627,478.62s15.21,14.16,8.6,17.94-8.59-4.34-8.59-4.34,2-.55,1-3.22-3.17-7.67-3.17-7.67S625,476.61,627,478.62Z" transform="translate(-458.95 -416.77)"/></svg>