<svg id="Camada_17" data-name="Camada 17" xmlns="http://www.w3.org/2000/svg" viewBox="0 0 196.8 283.76"><defs><style>.cls-1{fill:#d3a55d;}</style></defs><title>pele07</title><path class="cls-1" d="M457.75,449.25s1.2-25.58,10.66-42.79,13-25.39,23.24-32.68S512,359.86,529,356.43s33.95-.07,41.64,2,30.79,8.6,41,17.57,18.89,15.54,23.37,29.44,7,24.08,7.86,31.76,2,13.63,1.39,22.42-1.24,16.06-3.23,22.21S635.1,502.94,623,514s-17.59,15.31-21.62,17.85S590,538.67,590,538.67a67.57,67.57,0,0,1,17.38,10.57c8,6.91,12.54,10.45,17,17.89s7.42,13,8.86,17.52a102.49,102.49,0,0,1,3.73,15.52c.43,3.85,1.18,9,1.18,9l5.14,9.82s-5.5,19-35.87,18c-3,2-116.92,8.73-148.37-30.33-.49-7.9,2.69-18.88,3.85-22s7.54-15.52,7.54-15.52l12.27-16.27s9.85-8.86,12.85-9.36a61,61,0,0,0,8.53-2.64s-9.91-5.48-16-10.9-13.78-12.82-17.12-18.89-6.17-8.12-7.29-17.59L462.5,484a15.28,15.28,0,0,1-7.83-1.28C451.08,480.9,450,479,450,479v-8.13s-1.19-6.07-1.49-8.31-1.54-6.86-.35-7.73,4.92-4.37,6.5-5A9.88,9.88,0,0,1,457.75,449.25Z" transform="translate(-447.66 -354.96)"/></svg>